<?xml version="1.0" encoding="UTF-8" standalone="no"?>
<?xml-stylesheet href="media/locomap.css" type="text/css"?>
<svg
   xmlns="http://www.w3.org/2000/svg"
   xmlns:svg="http://www.w3.org/2000/svg"
   xmlns:xlink="http://www.w3.org/1999/xlink"
   width="1083" height="532" version="1.0">

<defs>
  <script type="text/ecmascript" xlink:href="media/locomap.js"/>
  <script type="text/ecmascript" xlink:href="media/common.js"/>
  <script type="text/ecmascript" xlink:href="media/smil.user.js"/>
</defs>

  <path d="M 0,0 L 0,532 L 1083,532 L 1083,0 L 0,0 z" id="ocean" class="ocean"/>

  <rect id="bounding" width="1043" height="492" y="20" x="20" style="opacity: 0.05;"/>

  <g id="map">
  </g>

  <g id="back_button" class="hidden">
    <rect ry="10" y="32" x="978" height="28" width="74"/>
    <path d="M 1010.7751,44.481664 C 1010.9067,45.332623 1011.4068,46.165042 1011.0488,47.030757 C 1010.7252,48.441703 1009.7596,49.629763 1008.72,50.605639 C 1007.2398,51.615066 1005.278,52.122593 1003.5389,51.541918 C 1002.5034,51.091009 1001.9725,49.894979 1002.2828,48.827529 C 1002.6751,46.520192 1003.1927,44.228699 1003.814,41.973892 C 1004.4352,40.670668 1005.9169,40.080989 1007.2246,39.677844 C 1008.4295,39.429063 1009.6803,39.503005 1010.9035,39.559854 C 1011.8951,40.078685 1011.7323,41.383287 1011.5622,42.304493 C 1011.4838,43.095862 1010.7838,43.688389 1010.7751,44.481664 z M 1008.5345,46.829424 C 1007.4371,46.491785 1006.2978,46.932976 1005.3091,47.409294 C 1004.9929,47.75059 1004.7212,48.430458 1005.2841,48.673487 C 1006.5738,49.465548 1008.5568,48.513031 1008.6915,47.013284 C 1008.6391,46.951998 1008.5868,46.89071 1008.5345,46.829424 z M 1008.8484,42.07733 C 1008.1751,41.90443 1007.446,42.263657 1006.8362,42.544055 C 1006.2072,42.949912 1005.2102,43.402649 1005.4632,44.314584 C 1005.8011,44.933094 1006.6052,44.423175 1007.0502,44.184657 C 1007.8052,43.703913 1008.6865,43.127458 1008.9198,42.218762 L 1008.883,42.145832 L 1008.8484,42.07733 z M 1019.9943,48.752892 C 1019.4836,48.294126 1018.7296,48.651211 1018.1056,48.59688 C 1017.0337,48.654208 1015.9531,48.779803 1014.8964,48.914901 C 1014.197,49.300181 1014.1909,50.240512 1013.8378,50.883736 C 1013.7509,51.36528 1013.0023,51.623819 1012.8555,51.039521 C 1012.5865,50.120954 1012.9779,49.153031 1013.0534,48.223216 C 1013.5618,45.762537 1014.6166,43.438271 1015.86,41.260939 C 1016.4759,40.318151 1017.6521,39.708689 1018.7922,39.882288 C 1019.8482,39.957114 1020.6791,40.72934 1021.3357,41.483318 C 1022.141,42.888285 1021.8858,44.557246 1022.0636,46.100168 C 1022.128,47.627655 1022.0983,49.179091 1021.9209,50.690499 C 1021.7601,51.181177 1021.2602,51.62544 1020.7342,51.318762 C 1019.8391,50.78318 1020.4574,49.528245 1019.9943,48.752892 z M 1015.5987,45.754545 C 1016.0342,46.045901 1016.4687,45.874902 1016.9398,45.824328 C 1017.8696,45.691045 1018.8554,45.761337 1019.7473,45.480862 C 1020.3705,44.899643 1020.2369,43.872137 1020.0082,43.124411 C 1019.7256,42.415382 1018.9448,41.754341 1018.1533,42.148047 C 1016.9792,42.75765 1015.999,43.860636 1015.6705,45.134848 C 1015.6466,45.341414 1015.6226,45.547979 1015.5987,45.754545 z M 1030.6835,42.968347 C 1029.9745,43.065747 1029.4564,43.681039 1028.833,44.0044 C 1027.5923,44.802997 1026.5677,45.895282 1025.6457,47.027428 C 1025.3282,47.610307 1025.2073,48.618548 1025.983,48.868976 C 1027.3793,49.125608 1028.8508,49.407709 1030.2226,48.874206 C 1030.9687,48.69896 1031.6408,48.218238 1032.3891,48.110879 C 1033.0378,48.284055 1032.9755,49.175099 1032.686,49.651514 C 1032.1309,50.613943 1030.9404,50.918292 1029.9557,51.270368 C 1028.0319,51.650474 1026.0474,51.390025 1024.1255,51.133794 C 1023.2256,50.392844 1023.1082,49.060571 1023.2092,47.968507 C 1023.7159,45.702922 1025.2737,43.836679 1026.8838,42.223179 C 1028.0083,41.194767 1029.2742,40.166711 1030.7941,39.823147 C 1031.7446,39.74065 1032.3484,40.698241 1032.4271,41.534423 C 1032.5823,42.273285 1032.819,43.372711 1031.9965,43.802794 C 1031.3591,43.898721 1031.149,43.232407 1030.6835,42.968347 z M 1035.8925,45.174678 C 1036.5507,45.391327 1036.9115,44.558747 1037.3063,44.17316 C 1038.4003,42.872358 1039.2418,41.383126 1040.2738,40.040717 C 1040.6661,39.618714 1041.396,39.85305 1041.3933,40.447315 C 1041.4217,42.020145 1040.3787,43.340895 1039.7314,44.707953 C 1039.3874,45.630108 1040.3202,46.24031 1040.7162,46.956713 C 1041.3648,47.916431 1041.43,49.143473 1041.3993,50.261308 C 1041.2421,50.758484 1040.8071,51.389995 1040.2388,51.392745 C 1039.7295,51.133466 1039.9094,50.368999 1039.6912,49.903997 C 1039.3455,48.86609 1038.4718,47.95122 1037.4053,47.635582 C 1036.4074,47.389669 1035.4654,48.339885 1035.5533,49.318536 C 1035.5395,49.979087 1035.1767,50.866178 1034.4561,50.957372 C 1033.7449,50.666515 1033.9593,49.706361 1033.8889,49.090273 C 1033.8296,46.768706 1033.7397,44.4363 1033.9373,42.119759 C 1034.0533,41.460393 1034.1354,40.526887 1034.922,40.337724 C 1035.6725,40.512669 1035.4708,41.484747 1035.5687,42.059756 C 1035.6936,43.011864 1035.4863,44.020078 1035.7685,44.937591 C 1035.8098,45.01662 1035.8512,45.095649 1035.8925,45.174678 z"/>
    <path d="M 993.37695,37.517237 L 985.39833,45.706609 L 993.37695,53.895982 L 993.37695,37.517237 z"/>
  </g>

</svg>
